 <svg  version="1.0" xmlns="http://www.w3.org/2000/svg"  width="300.000000pt" height="86.000000pt" viewBox="0 0 300.000000 86.000000"  preserveAspectRatio="xMidYMid meet">  <g transform="translate(0.000000,86.000000) scale(0.050000,-0.050000)" fill="#000000" stroke="none"> <path d="M4560 1698 c-106 -43 -190 -173 -240 -373 -19 -75 -28 -85 -78 -85 -32 0 -68 -13 -82 -30 -21 -26 -15 -30 48 -30 39 0 72 -7 71 -15 -1 -31 -96 -448 -102 -453 -4 -3 -137 -16 -297 -28 -747 -61 -2185 -458 -2216 -612 -10 -46 -1 -44 392 88 665 225 2008 503 2080 431 34 -34 -69 -111 -149 -111 -93 0 -141 -46 -85 -82 82 -52 224 19 289 144 36 69 86 72 592 37 476 -34 815 -101 1112 -221 93 -38 139 6 65 63 -194 149 -865 278 -1445 279 -140 0 -255 3 -255 7 0 4 18 58 39 120 22 63 50 167 62 232 22 112 27 119 85 125 81 8 94 51 17 60 l-59 6 48 153 c56 177 85 207 196 207 63 0 83 8 88 38 14 66 -73 91 -176 50z"/> <path d="M2010 1522 c-436 -250 -521 -882 -118 -882 128 0 252 49 328 130 68 72 37 82 -59 18 -182 -120 -362 -82 -393 83 -60 322 367 816 488 564 39 -82 164 -66 164 20 0 127 -237 166 -410 67z"/> <path d="M33 1547 c-31 -32 -14 -502 19 -515 49 -19 435 -13 466 7 30 18 39 457 12 501 -14 22 -475 28 -497 7z m358 -115 c11 -4 17 -44 13 -89 -9 -89 -129 -159 -168 -98 -12 19 -15 19 -16 -1 0 -19 -10 -20 -40 -4 -23 12 -51 16 -64 8 -13 -8 -17 -5 -9 8 8 11 5 27 -7 34 -11 7 -20 26 -20 42 0 17 8 26 17 20 10 -6 17 8 15 32 -3 62 158 89 279 48z"/> <path d="M645 1537 c-34 -34 -34 -460 -1 -493 16 -16 103 -24 260 -24 286 0 275 -12 258 310 l-12 220 -240 6 c-170 4 -248 -2 -265 -19z m310 -108 c44 -9 65 -69 25 -69 -11 0 -20 -16 -20 -35 1 -30 3 -31 20 -5 16 24 19 21 20 -15 0 -41 -9 -45 -107 -45 l-108 0 6 85 c3 47 6 85 7 85 1 0 27 2 57 5 30 2 75 0 100 -6z"/> <path d="M2315 1286 c-5 -9 -10 -131 -11 -271 l-2 -255 48 0 c45 0 49 8 54 133 11 237 136 244 136 8 0 -137 1 -141 50 -141 49 0 50 3 50 150 0 210 -55 263 -207 200 -33 -14 -36 -6 -30 82 6 93 -54 157 -88 94z"/> <path d="M3900 1199 c0 -93 -3 -99 -39 -80 -152 82 -294 -161 -180 -306 46 -58 150 -73 198 -28 21 20 28 20 35 0 5 -14 27 -25 48 -25 36 0 38 17 38 270 l0 270 -50 0 c-47 0 -50 -7 -50 -101z m-32 -151 c48 -18 44 -180 -5 -206 -57 -31 -123 25 -123 105 0 95 47 132 128 101z"/> <path d="M5740 1200 c0 -99 0 -99 -53 -79 -154 59 -276 -168 -166 -308 46 -58 150 -73 198 -28 21 20 28 20 35 0 5 -14 27 -25 48 -25 36 0 38 17 38 270 l0 270 -50 0 c-47 0 -50 -7 -50 -100z m-21 -169 c55 -66 18 -181 -59 -181 -67 0 -70 4 -76 76 -7 84 21 134 76 134 19 0 46 -13 59 -29z"/> <path d="M5268 1251 c-16 -40 7 -71 51 -71 39 0 61 34 46 75 -12 34 -84 32 -97 -4z"/> <path d="M2803 1122 c-55 -35 -13 -71 73 -65 66 5 84 -1 84 -25 0 -19 -17 -32 -41 -32 -93 0 -158 -59 -159 -143 0 -76 36 -95 176 -93 l124 2 0 147 c0 199 -120 296 -257 209z m177 -203 c0 -45 -43 -99 -79 -99 -46 0 -69 56 -39 93 27 32 118 37 118 6z"/> <path d="M3200 983 c0 -198 113 -302 216 -199 19 19 24 19 24 0 0 -13 18 -24 40 -24 37 0 40 13 40 170 0 94 0 177 0 185 0 8 -20 15 -45 15 -41 0 -45 -10 -47 -113 -3 -148 -17 -181 -73 -173 -41 5 -45 18 -51 151 -6 139 -8 145 -55 145 -48 0 -49 -4 -49 -157z"/> <path d="M4624 1109 c-24 -18 -44 -22 -44 -10 0 11 -18 21 -40 21 -37 0 -40 -13 -40 -180 0 -179 0 -180 50 -180 48 0 50 6 50 116 0 120 22 164 84 164 25 0 36 15 36 50 0 57 -32 64 -96 19z"/> <path d="M4882 1112 c-112 -62 -133 -204 -44 -294 153 -152 384 16 291 211 -48 101 -151 136 -247 83z m131 -68 c44 -27 54 -121 19 -174 -38 -58 -65 -62 -115 -17 -92 83 -4 256 96 191z"/> <path d="M5260 940 c0 -179 0 -180 50 -180 50 0 50 1 50 180 0 179 0 180 -50 180 -50 0 -50 -1 -50 -180z"/> <path d="M783 793 c-197 -199 -198 -185 4 -392 193 -196 177 -196 373 -1 201 200 201 204 -2 396 -205 194 -179 194 -375 -3z m266 -140 c41 -30 13 -113 -38 -113 -15 0 -31 -11 -36 -24 -9 -27 -80 37 -101 91 -10 25 -2 33 32 33 36 1 38 4 14 20 -23 15 -16 19 31 20 34 0 78 -12 98 -27z"/> <path d="M33 927 c-24 -25 -15 -477 11 -503 32 -32 468 -33 488 -1 25 41 30 461 5 490 -23 29 -477 41 -504 14z m304 -155 c13 -8 18 -25 10 -37 -9 -14 -2 -17 20 -9 33 13 33 -17 3 -118 -9 -30 -129 -47 -184 -26 -54 20 -103 102 -69 114 13 4 18 16 12 26 -6 10 5 18 25 18 29 1 30 4 8 18 -22 14 -20 20 10 27 49 12 136 5 165 -13z"/> <path d="M2907 151 c-23 -62 18 -141 73 -141 43 0 51 10 56 75 4 43 -3 75 -15 75 -11 0 -21 -28 -21 -62 0 -40 -9 -58 -25 -53 -14 5 -25 32 -25 60 0 65 -25 92 -43 46z"/> <path d="M3155 165 c-39 -9 -53 -165 -15 -165 11 0 20 10 20 23 0 12 16 35 35 49 33 25 33 27 -4 27 -37 1 -37 2 -2 28 41 29 21 51 -34 38z"/> <path d="M3325 166 c-47 -9 -71 -166 -25 -166 11 0 20 13 20 30 0 17 14 30 30 30 42 0 38 40 -5 41 -26 1 -23 6 11 20 26 10 41 28 34 39 -7 11 -14 19 -16 17 -2 -1 -24 -6 -49 -11z"/> <path d="M3685 167 c-84 -34 -65 -167 23 -167 48 0 86 69 50 91 -32 20 -66 -14 -35 -35 20 -13 17 -17 -13 -12 -55 9 -50 65 6 73 26 3 43 16 39 28 -9 27 -36 35 -70 22z"/> <path d="M3875 166 c-62 -16 -49 -166 15 -166 57 0 68 32 15 46 -33 9 -33 9 0 12 19 1 35 10 35 21 0 10 -16 22 -35 27 -33 9 -33 9 0 12 19 1 35 16 35 32 0 31 -5 32 -65 16z"/> <path d="M4365 167 c-36 -15 -31 -68 10 -99 33 -25 33 -27 0 -27 -55 -1 -41 -41 15 -41 60 0 70 66 15 98 -33 20 -33 21 2 21 20 1 33 12 28 25 -9 28 -35 36 -70 23z"/> <path d="M5028 157 c-5 -8 0 -20 12 -27 11 -7 20 -40 20 -73 0 -67 46 -71 56 -5 4 21 10 49 15 63 4 14 6 31 3 39 -6 18 -95 21 -106 3z"/> <path d="M5735 165 c-62 -14 -49 -165 15 -165 57 0 68 32 15 46 -33 9 -33 9 0 12 19 1 35 10 35 21 0 10 -16 22 -35 27 -33 9 -33 9 0 12 19 1 35 10 35 21 0 26 -24 35 -65 26z"/> <path d="M2320 120 c-30 -56 7 -120 71 -120 27 0 49 9 49 20 0 11 -18 20 -40 20 -27 0 -40 13 -40 40 0 27 13 40 40 40 22 0 40 9 40 20 0 37 -98 21 -120 -20z"/> <path d="M2512 85 c15 -83 28 -110 28 -58 0 18 14 33 30 33 17 0 30 -13 30 -30 0 -17 9 -30 20 -30 11 0 20 36 20 80 0 44 -9 80 -20 80 -11 0 -20 -13 -20 -30 0 -16 -9 -30 -21 -30 -11 0 -25 14 -32 30 -23 61 -49 29 -35 -45z"/> <path d="M2739 105 c-11 -30 -24 -66 -29 -80 -11 -31 15 -32 45 -2 18 18 31 17 57 -4 30 -26 32 -22 18 41 -25 119 -58 135 -91 45z"/> <path d="M3474 145 c-23 -39 -35 -145 -17 -145 11 0 24 11 29 25 7 20 14 20 36 0 45 -43 53 -28 31 55 -19 73 -57 103 -79 65z"/> <path d="M4540 109 c-31 -81 -27 -119 10 -89 24 20 36 20 60 0 24 -20 30 -19 30 6 0 51 -37 134 -60 134 -12 0 -30 -23 -40 -51z"/> <path d="M4720 80 c0 -82 39 -115 41 -35 l2 45 22 -46 c12 -25 31 -42 43 -38 29 9 41 154 13 154 -11 0 -21 -20 -21 -44 l0 -45 -31 45 c-46 65 -69 54 -69 -36z"/> <path d="M4920 80 c0 -44 9 -80 20 -80 11 0 20 36 20 80 0 44 -9 80 -20 80 -11 0 -20 -36 -20 -80z"/> <path d="M5220 110 c-31 -83 -27 -121 11 -89 23 19 36 20 54 2 43 -43 53 -23 27 51 -32 92 -66 105 -92 36z"/> <path d="M5400 80 c0 -44 9 -80 20 -80 11 0 20 36 20 80 0 44 -9 80 -20 80 -11 0 -20 -36 -20 -80z"/> <path d="M5520 80 c0 -44 9 -80 20 -80 11 0 20 15 20 34 0 29 4 29 29 -5 28 -36 30 -33 30 46 1 78 -3 85 -49 85 -45 0 -50 -8 -50 -80z"/> </g> </svg> 