<?xml version="1.0" encoding="UTF-8"?>
<svg xmlns="http://www.w3.org/2000/svg" xmlns:xlink="http://www.w3.org/1999/xlink" width="48px" height="px" viewBox="0 0 48 48" version="1.1">
<g id="surface1">
<path style=" stroke:none;fill-rule:nonzero;fill:rgb(0%,0%,0%);fill-opacity:1;" d="M 26.6875 19.054688 C 27.328125 17.007812 27.398438 14.929688 26.902344 12.816406 C 26.40625 10.703125 25.390625 8.863281 23.855469 7.296875 C 22.671875 6.078125 21.28125 5.175781 19.679688 4.585938 C 18.078125 3.992188 16.433594 3.761719 14.734375 3.886719 C 14.222656 3.921875 13.816406 4.113281 13.511719 4.464844 C 13.207031 4.816406 13.046875 5.222656 13.03125 5.6875 C 13.015625 6.152344 13.183594 6.574219 13.535156 6.960938 C 14.113281 7.503906 15.121094 8.34375 16.558594 9.480469 C 18 10.617188 18.992188 11.457031 19.535156 12 C 20.078125 12.542969 20.34375 13.175781 20.328125 13.894531 C 20.3125 14.617188 20.046875 15.230469 19.535156 15.742188 L 15.742188 19.535156 C 15.230469 20.046875 14.609375 20.3125 13.871094 20.328125 C 13.136719 20.34375 12.527344 20.097656 12.046875 19.585938 L 6.960938 13.585938 C 6.574219 13.230469 6.152344 13.054688 5.6875 13.054688 C 5.222656 13.054688 4.816406 13.207031 4.464844 13.511719 C 4.113281 13.816406 3.921875 14.222656 3.886719 14.734375 C 3.726562 16.65625 4.039062 18.503906 4.824219 20.28125 C 5.609375 22.054688 6.761719 23.542969 8.28125 24.742188 C 9.800781 25.945312 11.519531 26.71875 13.441406 27.070312 C 15.359375 27.425781 17.230469 27.3125 19.054688 26.734375 C 19.34375 26.640625 19.625 26.632812 19.894531 26.710938 C 20.167969 26.792969 20.382812 26.945312 20.542969 27.167969 L 32.160156 42.097656 C 33.054688 43.054688 34.121094 43.710938 35.351562 44.0625 C 36.585938 44.414062 37.824219 44.433594 39.070312 44.113281 C 40.320312 43.792969 41.390625 43.175781 42.289062 42.265625 C 43.183594 41.351562 43.792969 40.28125 44.113281 39.046875 C 44.433594 37.816406 44.414062 36.574219 44.0625 35.328125 C 43.710938 34.078125 43.054688 33.023438 42.097656 32.160156 L 27.167969 20.542969 C 26.945312 20.382812 26.792969 20.167969 26.710938 19.894531 C 26.632812 19.625 26.625 19.34375 26.6875 19.054688 Z M 38.785156 38.785156 C 38.464844 39.136719 38.070312 39.351562 37.609375 39.433594 C 37.144531 39.511719 36.6875 39.464844 36.238281 39.289062 C 35.792969 39.113281 35.441406 38.832031 35.183594 38.449219 C 34.929688 38.0625 34.800781 37.632812 34.800781 37.152344 C 34.800781 36.671875 34.929688 36.230469 35.183594 35.832031 C 35.441406 35.433594 35.792969 35.144531 36.238281 34.96875 C 36.6875 34.792969 37.144531 34.753906 37.609375 34.847656 C 38.070312 34.945312 38.464844 35.152344 38.785156 35.472656 C 39.230469 35.921875 39.457031 36.472656 39.457031 37.128906 C 39.457031 37.785156 39.230469 38.335938 38.785156 38.785156 Z M 38.785156 38.785156 "/>
</g>
</svg>
