<?xml version="1.0" encoding="UTF-8"?>
<svg xmlns="http://www.w3.org/2000/svg" xmlns:xlink="http://www.w3.org/1999/xlink" width="48px" height="px" viewBox="0 0 48 48" version="1.1">
<g id="surface1">
<path style=" stroke:none;fill-rule:nonzero;fill:rgb(0.392157%,0%,0.784314%);fill-opacity:1;" d="M 47.425781 38.363281 L 25.113281 16.050781 L 31.957031 9.113281 C 32.425781 8.636719 32.621094 7.953125 32.46875 7.300781 C 32.320312 6.648438 31.847656 6.117188 31.214844 5.890625 L 17.996094 1.195312 C 17.285156 0.941406 16.484375 1.121094 15.949219 1.660156 L 0.570312 17.164062 C 0.199219 17.535156 -0.0078125 18.042969 0 18.566406 C 0.0078125 19.089844 0.222656 19.589844 0.601562 19.957031 L 9.8125 28.8125 C 10.191406 29.175781 10.683594 29.359375 11.171875 29.359375 C 11.675781 29.359375 12.183594 29.164062 12.566406 28.773438 L 17.191406 24.085938 L 39.445312 46.34375 C 39.828125 46.726562 40.332031 46.917969 40.832031 46.917969 C 41.332031 46.917969 41.832031 46.726562 42.214844 46.34375 L 47.425781 41.136719 C 47.792969 40.765625 48 40.269531 48 39.75 C 48 39.230469 47.792969 38.730469 47.425781 38.363281 Z M 11.136719 24.644531 L 4.753906 18.507812 L 17.855469 5.304688 L 27.003906 8.554688 Z M 40.832031 42.1875 L 19.953125 21.308594 L 22.390625 18.871094 L 43.269531 39.75 Z M 40.832031 42.1875 "/>
</g>
</svg>
